<svg viewBox="0 0 72 72" xmlns="http://www.w3.org/2000/svg" width="72" height="72">
  <rect width="72" height="72" fill="#e8dfc8"/>
  <ellipse cx="36" cy="60" rx="20" ry="14" fill="#1a1208"/>
  <rect x="28" y="44" width="16" height="13" fill="#f5efe0" rx="1"/>
  <line x1="36" y1="44" x2="36" y2="57" stroke="#1a1208" stroke-width="1"/>
  <rect x="31" y="40" width="10" height="7" fill="#d4b896" rx="1"/>
  <circle cx="36" cy="30" r="14" fill="#d4b896"/>
  <rect x="22" y="18" width="28" height="4" fill="#1a1208" rx="0.5"/>
  <rect x="27" y="13" width="18" height="6" fill="#1a1208" rx="0.5"/>
  <line x1="45" y1="14" x2="50" y2="22" stroke="#c9a227" stroke-width="1.5"/>
  <circle cx="51" cy="24" r="2.5" fill="#c9a227"/>
  <circle cx="29" cy="30" r="3.5" fill="none" stroke="#1a1208" stroke-width="1.2"/>
  <circle cx="43" cy="30" r="3.5" fill="none" stroke="#1a1208" stroke-width="1.2"/>
  <line x1="32.5" y1="30" x2="39.5" y2="30" stroke="#1a1208" stroke-width="1"/>
  <line x1="25.5" y1="30" x2="26" y2="30" stroke="#1a1208" stroke-width="1"/>
  <line x1="46" y1="30" x2="47" y2="30" stroke="#1a1208" stroke-width="1"/>
  <circle cx="29" cy="30" r="1.8" fill="#1a1208"/>
  <circle cx="43" cy="30" r="1.8" fill="#1a1208"/>
  <circle cx="29.5" cy="29.5" r="0.6" fill="white"/>
  <circle cx="43.5" cy="29.5" r="0.6" fill="white"/>
  <path d="M32,36 Q36,39 40,36" fill="none" stroke="#1a1208" stroke-width="1"/>
</svg>
